# xmcd
#
# Track frame offsets:
#   150
#   15995
#   29502
#   45872
#   61468
#   75250
#   92482
#   105450
#   123232
#   135577
#   155673
#   170193
#   185775
#   201696
#   217640
#   233673
#   250031
#   263889
#   278309
#   299941
#   318323
#
# Disc length: 4425 seconds
#
# Revision: 0
# Processed by: cddbd v1.5.2PL0 Copyright (c) Steve Scherf et al.
# Submitted via: uFREEDB 1.6.2
#
DISCID=20114715
DTITLE=op - ww
DYEAR=1900
DGENRE=Country
TTITLE0=0250
TTITLE1=0251
TTITLE2=0252
TTITLE3=0253
TTITLE4=0254
TTITLE5=0255
TTITLE6=0256
TTITLE7=0257
TTITLE8=0264
TTITLE9=0258
TTITLE10=0259
TTITLE11=0260
TTITLE12=0261
TTITLE13=0262
TTITLE14=0263
TTITLE15=o900
TTITLE16=0264w
TTITLE17=02655
TTITLE18=0266
TTITLE19=0267
TTITLE20=0268
EXTD=
EXTT0=
EXTT1=
EXTT2=
EXTT3=
EXTT4=
EXTT5=
EXTT6=
EXTT7=
EXTT8=
EXTT9=
EXTT10=
EXTT11=
EXTT12=
EXTT13=
EXTT14=
EXTT15=
EXTT16=
EXTT17=
EXTT18=
EXTT19=
EXTT20=
PLAYORDER=
